<svg width="184" height="29" viewBox="0 0 184 29" fill="none" xmlns="http://www.w3.org/2000/svg">
<path d="M14.6851 1.64947L26.8516 27.1204V28.5397H0V27.1204L13.0964 1.64947H14.6851ZM8.09809 23.1693H18.9472L13.7551 12.1984L8.09809 23.1693Z" fill="#404040"/>
<path d="M35.1152 28.5397H40.0748V0H35.1152V28.5397Z" fill="#404040"/>
<path d="M67.0817 28.5397H60.7272L55.1477 21.8267L54.024 22.9775V28.5397H48.5995V0H54.024V17.3386L58.9836 12.0066H65.6093L58.8286 18.9114L67.0817 28.5397Z" fill="#404040"/>
<path d="M85.0242 23.5145L88.6664 25.9312C86.9357 27.9771 84.7013 29 81.9632 29C79.5351 29 77.4427 28.1433 75.6862 26.4299C73.9555 24.7165 73.0902 22.6451 73.0902 20.2156C73.0902 17.7862 73.9555 15.7147 75.6862 14.0013C77.4169 12.2879 79.5092 11.4312 81.9632 11.4312C84.4172 11.4312 86.5095 12.2879 88.2402 14.0013C89.9709 15.7147 90.8362 17.7862 90.8362 20.2156C90.8362 20.7782 90.7846 21.3025 90.6812 21.7884H78.2048C78.4372 22.4277 78.7601 22.9647 79.1734 23.3995C80 24.2945 80.9945 24.7421 82.1569 24.7421C83.2418 24.7421 84.1976 24.3329 85.0242 23.5145ZM78.1273 18.873H86.1479C85.9412 18.157 85.5925 17.5304 85.1017 16.9934C84.3009 16.1239 83.3193 15.6892 82.1569 15.6892C80.9945 15.6892 80 16.1239 79.1734 16.9934C78.7343 17.5048 78.3856 18.1314 78.1273 18.873Z" fill="#404040"/>
<path d="M103.635 12.0066L104.371 13.3108C105.74 12.1345 107.148 11.5463 108.595 11.5463C110.997 11.5463 112.96 12.6332 114.484 14.8069C115.182 13.8095 116.047 13.0168 117.08 12.4286C118.114 11.8404 119.211 11.5463 120.374 11.5463C122.44 11.5463 124.21 12.403 125.682 14.1164C127.154 15.8298 127.891 17.9012 127.891 20.3307V28.5397H123.551V20.3307C123.551 19.1032 123.202 18.0547 122.505 17.1852C121.807 16.2901 120.916 15.8426 119.831 15.8426C118.798 15.8426 117.933 16.2773 117.235 17.1468C116.564 17.9907 116.202 18.9625 116.15 20.0622V28.5397H111.811V20.3307C111.811 19.1032 111.449 18.0547 110.726 17.1852C110.028 16.2901 109.15 15.8426 108.091 15.8426C107.187 15.8426 106.425 16.1495 105.805 16.7632C105.211 17.3514 104.785 18.1058 104.526 19.0265V28.5397H99.8767V12.0066H103.635Z" fill="#404040"/>
<path d="M137.107 7.01984H142.106V1.64947H137.107V7.01984ZM137.107 28.5397H142.106V12.0066H137.107V28.5397Z" fill="#404040"/>
<path d="M149.893 26.0079L152.993 22.9008C153.768 23.7703 154.646 24.3968 155.628 24.7804C156.635 25.164 157.475 25.2535 158.146 25.0489C158.818 24.8444 159.154 24.3968 159.154 23.7063C159.154 23.3228 159.012 23.0031 158.727 22.7474C158.469 22.466 158.198 22.2742 157.914 22.172C157.655 22.0441 157.255 21.8907 156.713 21.7116C154.827 21.1235 153.432 20.4841 152.528 19.7937C151.65 19.0776 151.21 17.9907 151.21 16.5331C151.21 15.0498 151.792 13.8479 152.954 12.9272C154.116 11.981 155.511 11.5079 157.139 11.5079C158.508 11.5079 159.657 11.6614 160.587 11.9683C161.543 12.2496 162.615 12.7482 163.803 13.4643L161.556 16.955C160.497 16.2134 159.541 15.7147 158.689 15.459C157.836 15.2033 157.165 15.1905 156.674 15.4206C156.209 15.6252 155.938 16.0216 155.86 16.6098C155.834 16.8399 155.86 17.0445 155.938 17.2235C156.041 17.4026 156.222 17.5688 156.48 17.7222C156.764 17.8501 157.023 17.9524 157.255 18.0291C157.487 18.1058 157.836 18.2209 158.301 18.3743C158.792 18.5278 159.166 18.6429 159.425 18.7196C160.742 19.1032 161.827 19.7169 162.68 20.5608C163.558 21.4048 163.997 22.4916 163.997 23.8214C163.997 25.1768 163.39 26.3787 162.176 27.4272C160.962 28.4758 159.515 29 157.836 29C154.556 29 151.908 28.0026 149.893 26.0079Z" fill="#404040"/>
<path d="M180.125 12.0066H184V16.4947H180.125V28.5397H175.204V16.4947H171.717V12.0066H175.204V5.86905H180.125V12.0066Z" fill="#404040"/>
</svg>
