<svg width="866" height="146" viewBox="0 0 866 146" fill="none" xmlns="http://www.w3.org/2000/svg">
<path d="M73.209 8.30423L133.862 136.537V143.683H0V136.537L65.2893 8.30423H73.209ZM40.3712 116.645H94.457L68.573 61.4127L40.3712 116.645ZM167.674 143.683V0H192.399V143.683H167.674ZM319.701 143.683H288.023L260.207 109.886L254.605 115.68V143.683H227.562V0H254.605V87.291L279.33 60.4471H312.361L278.558 95.209L319.701 143.683ZM401.804 118.384L419.961 130.55C412.041 140.013 399.872 146 386.544 146C362.205 146 342.309 126.108 342.309 101.775C342.309 77.2487 362.205 57.5503 386.544 57.5503C410.882 57.5503 430.778 77.2487 430.778 101.775C430.778 104.479 430.585 106.989 430.006 109.693H367.807C368.966 112.783 370.511 115.487 372.636 117.804C376.692 122.246 381.908 124.563 387.51 124.563C392.725 124.563 397.94 122.246 401.804 118.384ZM367.421 95.0159H407.405C406.44 91.5397 404.701 88.2566 402.19 85.5529C398.327 81.3042 392.918 78.9868 387.51 78.9868C381.908 78.9868 376.692 81.3042 372.636 85.5529C370.318 88.2566 368.58 91.5397 367.421 95.0159ZM487.19 60.4471L490.86 67.0132C496.848 61.7989 504.575 58.1296 511.915 58.1296C523.891 58.1296 534.322 64.5026 541.276 74.545C548.036 64.5026 558.854 58.1296 570.637 58.1296C591.305 58.1296 608.11 77.828 608.11 102.354V143.683H586.476V102.354C586.476 90.3809 578.943 79.7593 567.932 79.7593C557.115 79.7593 549.968 90.5741 549.582 101.003V143.683H527.947V102.354C527.947 90.3809 520.221 79.7593 509.404 79.7593C499.939 79.7593 493.951 87.0979 491.633 95.7884V143.683H468.453V60.4471H487.19ZM646.751 35.3413V8.30423H671.669V35.3413H646.751ZM646.751 143.683V60.4471H671.669V143.683H646.751ZM703.162 130.937L718.615 115.294C730.785 129.198 749.328 129.778 749.328 119.349C749.328 113.169 743.34 111.238 737.159 109.307C720.933 104.286 709.73 99.2646 709.73 83.2355C709.73 67.9788 723.445 57.9365 739.284 57.9365C753.578 57.9365 761.305 61.0265 772.508 67.7857L761.305 85.3598C745.079 73.7725 734.069 74.7381 732.91 83.6217C731.944 89.8016 741.022 90.9603 750.681 94.2434C762.464 97.7196 773.474 105.638 773.474 119.929C773.474 133.254 759.759 146 742.761 146C727.694 146 713.4 141.172 703.162 130.937ZM846.498 60.4471H865.814V83.0423H846.498V143.683H821.966V83.0423H804.581V60.4471H821.966V29.5476H846.498V60.4471Z" fill="#626262"/>
</svg>
