<svg width="659" height="101" viewBox="0 0 659 101" fill="none" xmlns="http://www.w3.org/2000/svg">
<path d="M572.449 24.3214H562.615V80.2709H572.449V98.8764H534.042V80.2709H544.009V24.3214H534.042V5.71582H572.449V24.3214Z" fill="white"/>
<path d="M484.766 5.71582L526.496 93.9593V98.8764H434.398V93.9593L479.318 5.71582H484.766ZM462.174 80.2709H499.385L481.577 42.2624L462.174 80.2709Z" fill="white"/>
<path d="M356.523 41.5966L358.915 48.1086C363.168 42.5269 370.743 40.1348 378.318 40.1348C381.64 40.1348 384.963 40.6664 388.019 41.7295L381.507 56.4811C371.806 52.2284 361.972 58.0758 360.244 67.2457V98.8751H343.632V41.5966H356.523Z" fill="white"/>
<path d="M305.21 39.8701C322.885 39.8701 336.972 53.4256 336.972 70.1706C336.972 87.0485 322.885 100.471 305.21 100.471C287.668 100.471 273.581 87.0485 273.581 70.1706C273.581 53.4256 287.668 39.8701 305.21 39.8701ZM315.975 81.3339C318.765 78.2773 320.227 74.2904 320.227 70.0377C320.227 65.9179 318.765 62.0639 315.975 59.1401C313.051 56.0835 309.463 54.4888 305.343 54.4888C301.489 54.4888 297.635 56.0835 294.977 59.1401C291.92 62.0639 290.458 66.0508 290.458 70.1706C290.458 74.4233 291.92 78.2773 294.977 81.3339C297.635 84.2576 301.489 85.8524 305.343 85.8524C309.463 85.8524 313.051 84.2576 315.975 81.3339Z" fill="white"/>
<path d="M212.739 98.8752V0H229.75V98.8752H212.739Z" fill="white"/>
<path d="M190.744 41.5978H203.502V98.8763H189.415V93.2946C184.099 97.8131 177.189 100.471 169.746 100.471C152.868 100.471 139.313 86.9156 139.313 70.1706C139.313 53.2927 152.868 39.8701 169.746 39.8701C177.189 39.8701 184.099 42.5281 189.415 47.0465L190.744 41.5978ZM182.372 81.201C185.295 78.1444 186.757 74.2904 186.757 70.1706C186.757 66.0508 185.295 62.0639 182.372 59.1401C179.581 56.2164 175.86 54.6217 171.873 54.6217C167.886 54.6217 164.165 56.2164 161.241 59.1401C158.45 62.0639 156.855 66.0508 156.855 70.1706C156.855 74.2904 158.45 78.1444 161.241 81.201C164.165 84.1247 167.886 85.7195 171.873 85.7195C175.86 85.7195 179.581 84.1247 182.372 81.201Z" fill="white"/>
<path d="M113.356 81.467L125.848 89.8395C120.399 96.3514 112.027 100.471 102.857 100.471C86.1117 100.471 72.4233 86.7828 72.4233 70.0379C72.4233 53.16 86.1117 39.6045 102.857 39.6045C119.602 39.6045 133.29 53.16 133.29 70.0379C133.29 71.8984 133.157 73.6261 132.758 75.4866H89.9657C90.7631 77.613 91.8263 79.4735 93.2881 81.0683C96.079 84.1249 99.6672 85.7197 103.521 85.7197C107.109 85.7197 110.698 84.1249 113.356 81.467ZM89.6999 65.3865H117.21C116.545 62.9943 115.349 60.7351 113.621 58.8745C110.963 55.9508 107.242 54.356 103.521 54.356C99.6672 54.356 96.079 55.9508 93.2881 58.8745C91.6934 60.7351 90.4973 62.9943 89.6999 65.3865Z" fill="white"/>
<path d="M65.1194 98.8765H45.3178L27.9083 61.5325H18.6055V98.7436H0V5.58301H35.0847C42.7928 5.58301 49.349 8.32954 54.7535 13.8226C60.2465 19.3157 62.9931 25.9162 62.9931 33.6242C62.9931 39.2059 61.4869 44.3003 58.4746 48.9073C55.5508 53.4258 51.6082 56.7926 46.6468 59.0075L65.1194 98.8765ZM35.0847 24.1886H18.6055V42.927H35.0847C37.6541 42.927 39.8247 42.041 41.5967 40.2691C43.4572 38.4085 44.3875 36.1936 44.3875 33.6242C44.3875 31.0549 43.4572 28.8399 41.5967 26.9794C39.8247 25.1188 37.6541 24.1886 35.0847 24.1886Z" fill="white"/>
<path d="M612.704 98.8744V78.1888H628.136C629.422 78.1888 630.601 78.7275 631.672 79.8049C632.744 80.8822 633.28 82.0674 633.28 83.3602V98.8744H612.704ZM612.704 67.846V41.9889H638.424L638.424 25.4493H592.128V5.78906H659L659 60.2226H633.28L633.28 67.846H612.704Z" fill="white"/>
</svg>
