<svg width="368" height="56" viewBox="0 0 368 56" fill="none" xmlns="http://www.w3.org/2000/svg">
<path d="M319.071 13.5559H313.589V44.7409H319.071V55.1112H297.663V44.7409H303.219V13.5559H297.663V3.18555H319.071V13.5559Z" fill="#353535"/>
<path d="M270.198 3.18555L293.457 52.3705V55.1112H242.124V52.3705L267.161 3.18555H270.198ZM257.605 44.7409H278.346L268.42 23.5558L257.605 44.7409Z" fill="#353535"/>
<path d="M198.718 23.1849L200.051 26.8145C202.421 23.7034 206.644 22.3701 210.866 22.3701C212.718 22.3701 214.57 22.6664 216.273 23.259L212.644 31.4812C207.236 29.1108 201.755 32.3701 200.792 37.4812V55.1107H191.533V23.1849H198.718Z" fill="#353535"/>
<path d="M170.117 22.2222C179.969 22.2222 187.821 29.7777 187.821 39.111C187.821 48.5183 179.969 55.9998 170.117 55.9998C160.339 55.9998 152.488 48.5183 152.488 39.111C152.488 29.7777 160.339 22.2222 170.117 22.2222ZM176.117 45.3332C177.673 43.6295 178.488 41.4073 178.488 39.0369C178.488 36.7406 177.673 34.5925 176.117 32.9629C174.488 31.2592 172.488 30.3703 170.191 30.3703C168.043 30.3703 165.895 31.2592 164.414 32.9629C162.71 34.5925 161.895 36.8147 161.895 39.111C161.895 41.4813 162.71 43.6295 164.414 45.3332C165.895 46.9628 168.043 47.8517 170.191 47.8517C172.488 47.8517 174.488 46.9628 176.117 45.3332Z" fill="#353535"/>
<path d="M118.576 55.1108V0H128.057V55.1108H118.576Z" fill="#353535"/>
<path d="M106.317 23.1851H113.428V55.1109H105.576V51.9998C102.613 54.5183 98.7611 55.9998 94.6129 55.9998C85.2056 55.9998 77.6501 48.4443 77.6501 39.111C77.6501 29.7036 85.2056 22.2222 94.6129 22.2222C98.7611 22.2222 102.613 23.7036 105.576 26.2222L106.317 23.1851ZM101.65 45.2591C103.28 43.5554 104.094 41.4073 104.094 39.111C104.094 36.8147 103.28 34.5925 101.65 32.9629C100.094 31.3332 98.0203 30.4443 95.7981 30.4443C93.5759 30.4443 91.5018 31.3332 89.8722 32.9629C88.3167 34.5925 87.4278 36.8147 87.4278 39.111C87.4278 41.4073 88.3167 43.5554 89.8722 45.2591C91.5018 46.8887 93.5759 47.7776 95.7981 47.7776C98.0203 47.7776 100.094 46.8887 101.65 45.2591Z" fill="#353535"/>
<path d="M63.1819 45.4074L70.1449 50.0741C67.1079 53.7037 62.4412 56 57.3301 56C47.9968 56 40.3672 48.3704 40.3672 39.0371C40.3672 29.6297 47.9968 22.0742 57.3301 22.0742C66.6634 22.0742 74.293 29.6297 74.293 39.0371C74.293 40.0741 74.2189 41.0371 73.9967 42.0741H50.145C50.5894 43.2593 51.182 44.2963 51.9968 45.1852C53.5524 46.8889 55.5524 47.7778 57.7005 47.7778C59.7005 47.7778 61.7005 46.8889 63.1819 45.4074ZM49.9968 36.4445H65.3301C64.9597 35.1112 64.2931 33.8519 63.3301 32.8149C61.8486 31.1853 59.7746 30.2964 57.7005 30.2964C55.5524 30.2964 53.5524 31.1853 51.9968 32.8149C51.1079 33.8519 50.4413 35.1112 49.9968 36.4445Z" fill="#353535"/>
<path d="M36.2961 55.1106H25.2591L15.5555 34.2959H10.3703V55.0365H0V3.11084H19.5555C23.8517 3.11084 27.506 4.6417 30.5184 7.70341C33.5801 10.7651 35.1109 14.4441 35.1109 18.7404C35.1109 21.8515 34.2714 24.691 32.5924 27.2589C30.9628 29.7774 28.7653 31.6539 25.9999 32.8885L36.2961 55.1106ZM19.5555 13.4812H10.3703V23.9255H19.5555C20.9875 23.9255 22.1974 23.4317 23.1851 22.4441C24.2221 21.407 24.7406 20.1725 24.7406 18.7404C24.7406 17.3083 24.2221 16.0737 23.1851 15.0367C22.1974 13.9997 20.9875 13.4812 19.5555 13.4812Z" fill="#353535"/>
<path d="M341.508 55.1108V43.5811H350.109C350.826 43.5811 351.483 43.8813 352.08 44.4818C352.678 45.0823 352.976 45.7429 352.976 46.4635V55.1108H341.508ZM341.508 37.8162V23.4041H355.843L355.843 14.1852H330.039V3.22705H367.312L367.312 33.5671H352.976L352.976 37.8162H341.508Z" fill="#353535"/>
</svg>
