<svg width="2581" height="376" viewBox="0 0 2581 376" fill="none" xmlns="http://www.w3.org/2000/svg">
<path d="M2229.86 91.2752H2193.1V300.443H2229.86V370H2086.28V300.443H2123.54V91.2752H2086.28V21.7183H2229.86V91.2752Z" fill="#353535"/>
<path d="M1892.12 21.7183L2048.12 351.617V370H1703.82V351.617L1871.75 21.7183H1892.12ZM1807.66 300.443H1946.77L1880.19 158.348L1807.66 300.443Z" fill="#353535"/>
<path d="M1392.81 155.864L1401.75 180.209C1417.65 159.341 1445.97 150.398 1474.29 150.398C1486.71 150.398 1499.13 152.386 1510.56 156.36L1486.21 211.509C1449.94 195.61 1413.18 217.471 1406.72 251.753V370H1344.61V155.864H1392.81Z" fill="#353535"/>
<path d="M1191.04 149.405C1257.12 149.405 1309.78 200.082 1309.78 262.683C1309.78 325.781 1257.12 375.962 1191.04 375.962C1125.46 375.962 1072.79 325.781 1072.79 262.683C1072.79 200.082 1125.46 149.405 1191.04 149.405ZM1231.28 304.417C1241.71 292.99 1247.18 278.085 1247.18 262.186C1247.18 246.784 1241.71 232.376 1231.28 221.446C1220.35 210.019 1206.94 204.057 1191.53 204.057C1177.13 204.057 1162.72 210.019 1152.78 221.446C1141.35 232.376 1135.89 247.281 1135.89 262.683C1135.89 278.582 1141.35 292.99 1152.78 304.417C1162.72 315.348 1177.13 321.31 1191.53 321.31C1206.94 321.31 1220.35 315.348 1231.28 304.417Z" fill="#353535"/>
<path d="M825.46 370V0.354492H889.055V370H825.46Z" fill="#353535"/>
<path d="M733.297 155.864H780.993V370H728.329V349.132C708.455 366.025 682.62 375.962 654.797 375.962C591.699 375.962 541.022 325.284 541.022 262.683C541.022 199.585 591.699 149.405 654.797 149.405C682.62 149.405 708.455 159.342 728.329 176.234L733.297 155.864ZM701.997 303.92C712.927 292.493 718.392 278.085 718.392 262.683C718.392 247.281 712.927 232.376 701.997 221.446C691.563 210.516 677.652 204.553 662.747 204.553C647.842 204.553 633.93 210.516 623 221.446C612.566 232.376 606.604 247.281 606.604 262.683C606.604 278.085 612.566 292.493 623 303.92C633.93 314.851 647.842 320.813 662.747 320.813C677.652 320.813 691.563 314.851 701.997 303.92Z" fill="#353535"/>
<path d="M434.044 304.914L480.746 336.215C460.376 360.56 429.075 375.962 394.794 375.962C332.192 375.962 281.018 324.788 281.018 262.186C281.018 199.088 332.192 148.411 394.794 148.411C457.395 148.411 508.569 199.088 508.569 262.186C508.569 269.142 508.072 275.601 506.581 282.557H346.601C349.582 290.506 353.556 297.462 359.021 303.424C369.455 314.851 382.869 320.813 397.278 320.813C410.692 320.813 424.107 314.851 434.044 304.914ZM345.607 244.797H448.452C445.968 235.854 441.496 227.408 435.037 220.452C425.1 209.522 411.189 203.56 397.278 203.56C382.869 203.56 369.455 209.522 359.021 220.452C353.059 227.408 348.588 235.854 345.607 244.797Z" fill="#353535"/>
<path d="M0.325928 21.2217H137.452C195.085 21.2217 241.788 68.421 241.788 126.054C241.788 168.285 214.462 213.497 171.237 220.949L243.775 370H169.747L104.661 230.389V229.892L69.8828 154.87V369.503H0.325928V21.2217ZM107.642 90.7786L141.924 160.335C158.816 158.348 172.231 143.94 172.231 126.054C172.231 106.677 156.829 90.7786 137.452 90.7786H107.642Z" fill="#353535"/>
<path d="M2406.04 369.41V291.632H2464.2C2469.04 291.632 2473.49 293.658 2477.53 297.709C2481.56 301.76 2483.58 306.216 2483.58 311.077V369.41H2406.04ZM2406.04 252.743V155.521H2502.97V97.1879H2328.51V19.4102H2580.51V233.299H2483.58V252.743H2406.04Z" fill="#353535"/>
</svg>
