<svg width="2464" height="376" viewBox="0 0 2464 376" fill="none" xmlns="http://www.w3.org/2000/svg">
<path d="M2140.1 90.9207H2103.34V300.088H2140.1V369.645H1996.52V300.088H2033.78V90.9207H1996.52V21.3638H2140.1V90.9207Z" fill="#5F5F5F"/>
<path d="M1812.3 21.3638L1968.3 351.262V369.645H1624V351.262L1791.93 21.3638H1812.3ZM1727.84 300.088H1866.95L1800.37 157.993L1727.84 300.088Z" fill="#5F5F5F"/>
<path d="M1332.86 155.509L1341.8 179.854C1357.7 158.987 1386.02 150.044 1414.34 150.044C1426.76 150.044 1439.18 152.031 1450.61 156.006L1426.27 211.155C1390 195.256 1353.23 217.117 1346.77 251.398V369.645H1284.67V155.509H1332.86Z" fill="#5F5F5F"/>
<path d="M1141.03 149.05C1207.11 149.05 1259.77 199.727 1259.77 262.329C1259.77 325.427 1207.11 375.607 1141.03 375.607C1075.45 375.607 1022.78 325.427 1022.78 262.329C1022.78 199.727 1075.45 149.05 1141.03 149.05ZM1181.27 304.063C1191.71 292.636 1197.17 277.731 1197.17 261.832C1197.17 246.43 1191.71 232.022 1181.27 221.091C1170.34 209.664 1156.93 203.702 1141.52 203.702C1127.12 203.702 1112.71 209.664 1102.77 221.091C1091.34 232.022 1085.88 246.927 1085.88 262.329C1085.88 278.227 1091.34 292.636 1102.77 304.063C1112.71 314.993 1127.12 320.955 1141.52 320.955C1156.93 320.955 1170.34 314.993 1181.27 304.063Z" fill="#5F5F5F"/>
<path d="M795.324 369.645V0H858.919V369.645H795.324Z" fill="#5F5F5F"/>
<path d="M713.098 155.509H760.795V369.645H708.13V348.778C688.257 365.67 662.421 375.607 634.599 375.607C571.5 375.607 520.823 324.93 520.823 262.329C520.823 199.231 571.5 149.05 634.599 149.05C662.421 149.05 688.257 158.987 708.13 175.879L713.098 155.509ZM681.798 303.566C692.728 292.139 698.193 277.731 698.193 262.329C698.193 246.927 692.728 232.022 681.798 221.091C671.364 210.161 657.453 204.199 642.548 204.199C627.643 204.199 613.731 210.161 602.801 221.091C592.367 232.022 586.405 246.927 586.405 262.329C586.405 277.731 592.367 292.139 602.801 303.566C613.731 314.496 627.643 320.458 642.548 320.458C657.453 320.458 671.364 314.496 681.798 303.566Z" fill="#5F5F5F"/>
<path d="M423.781 304.56L470.484 335.86C450.113 360.205 418.813 375.607 384.531 375.607C321.93 375.607 270.756 324.433 270.756 261.832C270.756 198.734 321.93 148.057 384.531 148.057C447.132 148.057 498.306 198.734 498.306 261.832C498.306 268.788 497.809 275.246 496.319 282.202H336.338C339.319 290.151 343.294 297.107 348.759 303.069C359.193 314.496 372.607 320.458 387.015 320.458C400.43 320.458 413.844 314.496 423.781 304.56ZM335.344 244.443H438.189C435.705 235.5 431.234 227.053 424.775 220.098C414.838 209.167 400.927 203.205 387.015 203.205C372.607 203.205 359.193 209.167 348.759 220.098C342.797 227.053 338.325 235.5 335.344 244.443Z" fill="#5F5F5F"/>
<path d="M243.449 369.645H169.421L104.335 230.035H69.5569V369.149H0V20.8672H131.164C159.981 20.8672 184.491 31.1351 204.696 51.6709C225.232 72.2068 235.5 96.8829 235.5 125.699C235.5 146.566 229.869 165.612 218.607 182.835C207.677 199.728 192.938 212.314 174.389 220.595L243.449 369.645ZM131.164 90.4241H69.5569V160.478H131.164C140.77 160.478 148.885 157.166 155.509 150.541C162.465 143.585 165.943 135.305 165.943 125.699C165.943 116.094 162.465 107.813 155.509 100.858C148.885 93.9019 140.77 90.4241 131.164 90.4241Z" fill="#5F5F5F"/>
<path d="M2290.6 369.646V292.312H2348.29C2353.1 292.312 2357.5 294.326 2361.51 298.354C2365.52 302.382 2367.52 306.812 2367.52 311.646V369.646H2290.6ZM2290.6 253.645V156.979H2386.75L2386.75 95.1455H2213.67V21.6455H2463.67L2463.67 225.146H2367.52L2367.52 253.645H2290.6Z" fill="#5F5F5F"/>
</svg>
